<svg xmlns="http://www.w3.org/2000/svg" width="691.83" height="75.18" viewBox="0 0 691.83 75.18">
  <g id="그룹_613" data-name="그룹 613" transform="translate(-812.579 -921.41)">
    <path id="패스_355" data-name="패스 355" d="M36.642,0H655.188c23.258,0,36.642,16.83,36.642,37.59s-13.385,37.59-36.642,37.59H36.642C13.385,75.18,0,58.35,0,37.59S13.385,0,36.642,0Z" transform="translate(812.579 921.41)" fill="#aaa"/>
    <path id="패스_374" data-name="패스 374" d="M22.71-23.25H4.26v-1.56H24.54v3.78A22.078,22.078,0,0,1,24-15.6H22.2a22.25,22.25,0,0,0,.45-3.12,44.949,44.949,0,0,1-8.58.63H4.26v-1.5h9.81a41.464,41.464,0,0,0,8.64-.66ZM2.4-12.45v-1.56H26.37v1.56ZM6.09-2.88V.27H25.2v1.5H4.26V-4.38H22.68V-7.59H4.26v-1.5H24.51v6.21Zm38.58-8.46H32.13v-7.59H42.69v-4.32H32.13v-1.56H44.52v7.47H33.96v4.47H45.03c2.79,0,5.07-.48,6.63-1.65V-25.14h1.83v14.79H51.66v-2.67C50.16-11.82,47.73-11.34,44.67-11.34Zm6.99,6.39v-3.3h1.83V1.77H33.84V-8.25h1.83v3.3Zm0,1.56H35.67V.24H51.66ZM63.45-18.81H80.52v-5.82h1.83V-8.85H72.96v7.53H83.82V.21H60.15V-1.32H71.13V-8.85H61.62V-24.63h1.83Zm17.07,8.37v-6.75H63.45v6.75Zm30.63-12.57H92.25v11.58h19.2v1.59H90.42V-24.63h20.73ZM88.95.21V-1.32h23.67V.21ZM118.2-12.57c0-6.15.6-9.75,2.28-11.46a4.127,4.127,0,0,1,2.97-1.11,4.055,4.055,0,0,1,2.94,1.11c1.56,1.56,2.19,4.74,2.28,10.02h4.05V-25.02h1.8V1.14h-1.8V-12.39h-4.05c0,6.06-.6,9.63-2.28,11.28a3.9,3.9,0,0,1-2.94,1.05,3.969,3.969,0,0,1-2.97-1.05C118.8-2.79,118.2-6.39,118.2-12.57Zm1.77,0c0,5.61.42,8.85,1.68,10.23a2.313,2.313,0,0,0,1.8.75,2.208,2.208,0,0,0,1.77-.75c1.26-1.38,1.68-4.62,1.68-10.23,0-5.55-.42-8.82-1.68-10.2a2.231,2.231,0,0,0-1.77-.78,2.337,2.337,0,0,0-1.8.78C120.39-21.39,119.97-18.12,119.97-12.57Zm18.45-12.6h1.8V1.44h-1.8Zm20.34,3.75h16.59v-3.36h1.83v10.35h-9.24v3.84h11.1V-9H155.07v-1.59h11.04v-3.84h-9.18V-24.78h1.83Zm16.59,5.43v-3.87H158.76v3.87Zm0,17.91V-3.54H156.72V-5.1h20.46V1.92ZM191.28-8.73a12.309,12.309,0,0,1-7.71,8.34V-2.07c3.45-1.56,6.78-4.74,6.78-12.06V-24.81h1.83v10.68c0,7.32,3.36,10.38,6.78,12.06V-.39C195.3-1.89,192.15-4.95,191.28-8.73Zm14.13-16.41v11.43h4.47v1.56h-4.47V1.44h-1.83V-25.14Zm21.93,2.13H216V-11.7h11.67v1.62h-5.85v8.4h4.08c2.79,0,5.4-.48,7.11-1.89V-25.14h1.83V1.44h-1.83V-2.04c-1.56,1.35-4.38,1.89-7.71,1.89H212.91V-1.68h7.08v-8.4h-5.82V-24.63h13.17Zm14.67,4.5a6.55,6.55,0,0,1,2.1-5.19,6.938,6.938,0,0,1,4.77-1.59,6.963,6.963,0,0,1,4.74,1.59,6.225,6.225,0,0,1,2.07,4.41h6.24v-5.85h1.83v14.85h-1.83v-7.44h-6.24a6.308,6.308,0,0,1-2.07,4.47,7.115,7.115,0,0,1-4.74,1.59,7.087,7.087,0,0,1-4.77-1.59A6.682,6.682,0,0,1,242.01-18.51Zm1.8,0a5.343,5.343,0,0,0,1.47,3.96,5.164,5.164,0,0,0,3.6,1.29,5.193,5.193,0,0,0,3.57-1.29,5.228,5.228,0,0,0,1.47-3.96,5.178,5.178,0,0,0-1.47-3.9,4.926,4.926,0,0,0-3.57-1.29,4.9,4.9,0,0,0-3.6,1.29A5.294,5.294,0,0,0,243.81-18.51ZM254.04,1.8a10.829,10.829,0,0,1-5.19-4.95,10.416,10.416,0,0,1-6.12,4.95V.18a7.839,7.839,0,0,0,5.16-6.96V-8.13h1.83v1.32A8.431,8.431,0,0,0,254.01.06a8.383,8.383,0,0,0,4.38-6.87V-8.13h1.83v1.35A7.716,7.716,0,0,0,265.41.18V1.8a10.469,10.469,0,0,1-6.15-4.95A10.782,10.782,0,0,1,254.04,1.8Zm28.17-22.86c-1.83,2.67-6.3,4.56-11.16,5.16v-1.68c4.77-.57,10.26-2.91,10.26-6.66v-.75h1.83v.75c0,3.75,5.25,6,10.29,6.66v1.68C288.39-16.53,284.1-18.42,282.21-21.06Zm-11.94,9.75v-1.56h23.97v1.56Zm1.86,3h1.83v3.18h16.59V-8.31h1.83V1.77H272.13ZM290.55.24V-3.57H273.96V.24Zm21.03-.66H300.24V-24.81h1.83v22.8h9.81a11.1,11.1,0,0,0,7.53-2.49V-25.14h1.83V1.41h-1.83V-2.97C317.85-1.32,314.91-.42,311.58-.42Zm28.65,0H328.8V-24.66h12.39v1.65H330.63v21h9.84c2.94,0,5.58-.84,7.11-2.31V-25.14h1.83v11.43h4.47v1.56h-4.47V1.44h-1.83v-4.2C346.17-1.23,343.32-.42,340.23-.42Zm19.68-2.91h-2.22V-.12h2.22Z" transform="translate(985 969)" fill="#fff"/>
  </g>
</svg>
