<svg width="130" height="35" viewBox="0 0 130 35" fill="none" xmlns="http://www.w3.org/2000/svg">
<path d="M20.096 4.432H12.68V0.903999H7.892V4.432H0.548V8.14H20.06L20.096 4.432ZM6.704 15.7C6.704 13.9 8.18 12.928 10.304 12.928C12.392 12.928 13.904 13.9 13.904 15.7C13.904 17.536 12.392 18.508 10.304 18.508C8.18 18.508 6.704 17.536 6.704 15.7ZM18.44 15.7C18.44 11.956 15.056 9.328 10.304 9.328C5.552 9.328 2.168 11.956 2.168 15.7C2.168 19.516 5.552 22.108 10.304 22.108C15.056 22.108 18.44 19.516 18.44 15.7ZM10.016 23.908H5.264V33.52H27.836V29.74H10.016V23.908ZM26.648 11.056V0.939999H21.896V25.744H26.648V14.98H31.04V11.056H26.648ZM51.0172 21.388H46.2652V22.432C46.2652 25.924 42.9532 29.416 35.5372 30.316L37.3372 33.988C42.7372 33.268 46.5892 31.072 48.6412 28.084C50.6572 31.072 54.5452 33.268 59.9452 33.988L61.7452 30.316C54.3292 29.416 51.0172 25.924 51.0172 22.432V21.388ZM59.2252 14.872C60.3412 9.832 60.3052 6.268 60.3052 3.964V2.344H49.3252V6.16H55.6612C55.5892 8.32 55.3372 11.2 54.4732 14.872H46.0492C47.4532 9.796 47.4172 6.196 47.4172 3.892V2.344H36.4372V6.16H42.7732C42.6652 8.32 42.3412 11.164 41.1892 14.872H33.6652V18.652H63.6532V14.872H59.2252ZM78.7704 10.12H85.3584V6.34H78.8064V1.732H74.0544V6.34H67.3224V10.12H74.0544V11.272C74.0544 16.24 71.5704 21.856 66.2064 24.34L68.7624 27.976C72.4704 26.32 75.0264 22.972 76.4664 19.012C77.8344 22.684 80.2464 25.78 83.7744 27.4L86.2944 23.8C81.1104 21.316 78.7704 15.952 78.7704 11.272V10.12ZM97.5624 13.828H92.7384V0.975998H87.9864V34.096H92.7384V17.752H97.5624V13.828ZM106.244 31H100.971V5.40625H106.244V31ZM129.887 9.67773H122.047V31H116.773V9.67773H109.039V5.40625H129.887V9.67773Z" fill="black"/>
</svg>
