<svg xmlns="http://www.w3.org/2000/svg" width="13.34" height="18.193" viewBox="0 0 13.34 18.193">
  <path id="bold" d="M1.012.046C4.968.046,6.969-1.771,6.969-5.2A4.164,4.164,0,0,0,3.841-9.43a3.674,3.674,0,0,0,2.6-3.749c0-3.266-1.955-4.968-5.819-4.968H-6.371V.046ZM3.174-5.405C3.174-3.68,2.3-3.013.437-3.013H-2.576V-7.774H.437C2.3-7.774,3.174-7.13,3.174-5.405Zm-.46-7.521c0,1.633-.92,2.139-2.691,2.139h-2.6v-4.278h2.6C1.794-15.065,2.714-14.536,2.714-12.926Z" transform="translate(6.371 18.147)" fill="#332b2b"/>
</svg>
