<svg xmlns="http://www.w3.org/2000/svg" width="32" height="22" viewBox="0 0 32 22">
  <g id="image" transform="translate(-1732 -624)">
    <g id="사각형_529" data-name="사각형 529" transform="translate(1732 624)" fill="#fff" stroke="#000" stroke-width="1">
      <rect width="32" height="22" stroke="none"/>
      <rect x="0.5" y="0.5" width="31" height="21" fill="none"/>
    </g>
    <g id="그룹_993" data-name="그룹 993" transform="translate(1732.62 630.435)">
      <g id="합치기_13" data-name="합치기 13" transform="translate(0.27 0.12)" fill="#fff" stroke-linecap="round" stroke-linejoin="round">
        <path d="M 30.09150123596191 14.85579967498779 L 11.10510063171387 14.85579967498779 L 1.00890040397644 14.85579967498779 C 0.8120503425598145 14.85579967498779 0.6435903906822205 14.74977016448975 0.5582903623580933 14.57217979431152 C 0.4728503823280334 14.39428997039795 0.4955003559589386 14.19610977172852 0.6188803911209106 14.04203987121582 L 6.810630321502686 6.323060035705566 C 6.906090259552002 6.203720092773438 7.047910213470459 6.135580062866211 7.20011043548584 6.135580062866211 C 7.352530479431152 6.135580062866211 7.494720458984375 6.203880310058594 7.590210437774658 6.322979927062988 L 11.73871994018555 11.4955005645752 L 12.15340995788574 12.01253986358643 L 12.5366907119751 11.47181034088135 L 20.19082069396973 0.6734400987625122 C 20.28564071655273 0.539880096912384 20.43440055847168 0.4631000757217407 20.59875106811523 0.4631000757217407 C 20.76309967041016 0.4631000757217407 20.9118595123291 0.539880096912384 21.00690078735352 0.6737400889396667 L 30.49987983703613 14.06634044647217 C 30.60991096496582 14.22177982330322 30.62337112426758 14.41592025756836 30.53568077087402 14.58541965484619 C 30.44810104370117 14.75471973419189 30.28205108642578 14.85579967498779 30.09150123596191 14.85579967498779 Z" stroke="none"/>
        <path d="M 30.09150123596191 14.35579967498779 C 30.09166526794434 14.35581398010254 30.09169960021973 14.35543537139893 30.09196090698242 14.3554801940918 L 20.59914779663086 0.9634100794792175 C 20.59881782531738 0.9634100794792175 20.59847831726074 0.9634100794792175 20.59815216064453 0.9634100794792175 L 12.94461059570312 11.76095008850098 C 12.76316070556641 12.01694011688232 12.47208023071289 12.17292022705078 12.15844058990479 12.18222999572754 C 11.84481334686279 12.19155693054199 11.5449914932251 12.0531005859375 11.34867000579834 11.80833053588867 L 7.200650215148926 6.635910034179688 L 1.009150385856628 14.35459041595459 C 1.008886575698853 14.35491752624512 1.008991122245789 14.355299949646 1.00890040397644 14.35579967498779 L 30.09150123596191 14.35579967498779 M 30.09150123596191 15.35579967498779 L 1.00890040397644 15.35579967498779 C 0.1701003760099411 15.35579967498779 -0.2960996329784393 14.38469982147217 0.2286003679037094 13.72949981689453 L 6.420600414276123 6.010200023651123 C 6.82020092010498 5.510699272155762 7.579800605773926 5.510700225830078 7.980300426483154 6.010200023651123 L 12.12877082824707 11.1826696395874 L 19.78289985656738 0.3843000829219818 C 20.18159866333008 -0.1772981584072113 21.01589775085449 -0.1773016452789307 21.41460037231445 0.3843000829219818 L 30.90780067443848 13.77719974517822 C 31.37669944763184 14.43959999084473 30.90330123901367 15.35579967498779 30.09150123596191 15.35579967498779 Z" stroke="none" fill="#000"/>
      </g>
    </g>
  </g>
</svg>
