<svg xmlns="http://www.w3.org/2000/svg" width="34.52" height="21.83" viewBox="0 0 34.52 21.83">
  <g id="number_list" data-name="number list" transform="translate(13977.02 4394.734)">
    <line id="선_221" data-name="선 221" x2="28" transform="translate(-13970.5 -4390.5)" fill="none" stroke="#000" stroke-width="1"/>
    <line id="선_222" data-name="선 222" x2="28" transform="translate(-13970.5 -4381.5)" fill="none" stroke="#000" stroke-width="1"/>
    <line id="선_223" data-name="선 223" x2="28" transform="translate(-13970.5 -4373.5)" fill="none" stroke="#000" stroke-width="1"/>
    <path id="패스_420" data-name="패스 420" d="M-.144.012V-4.734H-.87l-1.188.54V-3.4L-1-3.876V.012Zm2.466-.9H1.416v.9h.906Z" transform="translate(-13974.5 -4390)" fill="#332b2b"/>
    <path id="패스_419" data-name="패스 419" d="M.546-3.384A1.389,1.389,0,0,0-.948-4.818,1.392,1.392,0,0,0-2.442-3.384v.15h.852v-.144A.632.632,0,0,1-.948-4.1a.632.632,0,0,1,.642.72,1.02,1.02,0,0,1-.306.708L-2.376-.636V.012H.612V-.7H-1.26L.084-2.25A1.464,1.464,0,0,0,.546-3.384Zm1.776,2.5H1.416v.9h.906Z" transform="translate(-13974.5 -4381)" fill="#332b2b"/>
    <path id="패스_421" data-name="패스 421" d="M-2.52-1.332A1.421,1.421,0,0,0-.948.1,1.416,1.416,0,0,0,.618-1.332,1.123,1.123,0,0,0-.228-2.508a1.057,1.057,0,0,0,.7-1.038A1.27,1.27,0,0,0-.948-4.818,1.275,1.275,0,0,0-2.376-3.546v.108h.84V-3.48A.566.566,0,0,1-.948-4.1a.565.565,0,0,1,.582.618.574.574,0,0,1-.606.63H-1.44v.7h.468a.7.7,0,0,1,.738.774.691.691,0,0,1-.714.762.691.691,0,0,1-.714-.762v-.048H-2.52Zm4.842.444H1.416v.9h.906Z" transform="translate(-13974.5 -4373)" fill="#332b2b"/>
  </g>
</svg>
