<svg id="레이어_1" data-name="레이어 1" xmlns="http://www.w3.org/2000/svg" viewBox="0 0 69 69"><defs><style>.cls-1{fill:none;stroke:#7c7c7c;stroke-linecap:round;stroke-miterlimit:10;stroke-width:8px;}.cls-2{fill:#fff;}.cls-3{fill:#7c7c7c;}</style></defs><line class="cls-1" x1="6.14" y1="63.14" x2="64.62" y2="63.14"/><path class="cls-2" d="M21.74,57.14A4.49,4.49,0,0,1,19,56.22L8.25,48a4.51,4.51,0,0,1-.85-6.31L30.31,11.64a4.51,4.51,0,0,1,6.31-.85L47.38,19a4.49,4.49,0,0,1,.85,6.3L25.32,55.37A4.54,4.54,0,0,1,21.74,57.14Z"/><path class="cls-3" d="M33.89,13.37a1.06,1.06,0,0,1,.61.2l10.76,8.2a1,1,0,0,1,.19,1.4L22.53,53.25a1,1,0,0,1-.8.39,1,1,0,0,1-.6-.2l-10.76-8.2a1,1,0,0,1-.19-1.4L33.1,13.76a1,1,0,0,1,.79-.39m0-7h0a8,8,0,0,0-6.36,3.15L4.61,39.6A8,8,0,0,0,6.13,50.81L16.89,59A8,8,0,0,0,28.1,57.49L51,27.41A8,8,0,0,0,49.5,16.2L38.74,8a8.09,8.09,0,0,0-4.85-1.63Z"/><path class="cls-2" d="M45.38,26.11a4.56,4.56,0,0,1-2.73-.92L31.89,17A4.5,4.5,0,0,1,31,10.68l3.78-5A4.51,4.51,0,0,1,38.4,4a4.56,4.56,0,0,1,2.73.92l10.76,8.2a4.5,4.5,0,0,1,.85,6.31l-3.78,5A4.54,4.54,0,0,1,45.38,26.11Z"/><path class="cls-3" d="M38.4,7.45a1,1,0,0,1,.61.21l10.75,8.19a1,1,0,0,1,.19,1.4l-3.78,5a1,1,0,0,1-1.4.18L34,14.21a1,1,0,0,1-.19-1.4l3.78-5a1,1,0,0,1,.8-.4m0-7h0A8,8,0,0,0,32,3.6l-3.78,5a8,8,0,0,0,1.51,11.22L40.53,28a8,8,0,0,0,11.21-1.51l3.78-5A8,8,0,0,0,54,10.28L43.25,2.09A8,8,0,0,0,38.4.45Z"/><path class="cls-2" d="M9.49,61.48A4.57,4.57,0,0,1,5,56.53l1-11.4a4.47,4.47,0,0,1,4.47-4.08,4.53,4.53,0,0,1,2.76.94l10.33,7.86a4.55,4.55,0,0,1,1.73,4.4,4.45,4.45,0,0,1-3.08,3.49L10.84,61.28A4.69,4.69,0,0,1,9.49,61.48Z"/><path class="cls-3" d="M10.43,44.55a1.06,1.06,0,0,1,.64.22L21.4,52.64a1,1,0,0,1-.27,1.76L9.8,57.94a1.1,1.1,0,0,1-.31,0,1.05,1.05,0,0,1-1.05-1.14l1-11.4a1,1,0,0,1,1-.89m0-7h0a8,8,0,0,0-8,7.28l-1,11.4a8.06,8.06,0,0,0,10.41,8.39l11.34-3.54a8,8,0,0,0,2.42-14L15.31,39.2a8.11,8.11,0,0,0-4.88-1.65Z"/></svg>